<svg version="1" xmlns="http://www.w3.org/2000/svg" width="346.667" height="346.667" viewBox="0 0 260.000000 260.000000"><path d="M2 12.4c0 7.3-.4 12.7-1 13.1-.6.4-1 8.3-1 20.4v19.9l18.1.4c14.1.3 18.2.7 18.9 1.8.9 1.5.8 13.2-.5 55.2-.8 22.8-1 24.8-2.7 25.4-1 .3-1.8.9-1.8 1.4 0 .5-.7 1.5-1.4 2.3-.8.8-1.7 2.6-1.8 4-.2 1.4-1.3 3.5-2.3 4.7-1.4 1.6-2 4-2.3 8.9-.4 7.5.8 11.1 3.8 11.1 1.2 0 2.1 1 2.5 3 .4 1.7 1.1 3 1.6 3s.9 1.1.9 2.5.4 2.5 1 2.5c1.3 0 6.2 7.8 6.4 10.5.3 2.6-2.6 6.5-4.9 6.5-.9 0-1.5.6-1.4 1.2.6 4.9 1 4.8-17.1 4.8H0v17h16.5c10.3 0 16.5-.4 16.5-1s2.8-1 6.3-1c6.3 0 6.4 0 11.1 5 4.3 4.5 4.8 5.5 4.6 9.3-.2 2.3-.2 6.8-.1 9.9l.1 5.8h15v-15.9c0-11.6.3-16.1 1.3-16.9.7-.6 1.4-2.3 1.5-3.8.3-3.6 1.9-5.3 2.8-3.1.8 2.1 1 5.7 1.5 24.7l.3 15.5.6-20.4c.4-15.1.8-20.5 1.8-20.9.6-.2 1.2.3 1.2 1 0 .8.9 3.1 2 5.3 1.7 3.4 2 5.9 2 19.2V260h16v-7.8c0-9.3 3.3-17.6 7.6-19.2 3.9-1.5 23.9-1.2 27.7.3 5.1 2.2 7.7 8.5 7.7 18.6v8.1h116V0H144.2l-.4 12.2c-.5 14.5-1.9 18.2-7 19.2-4.8.8-26.9 1-29.5.2-3.9-1.3-5.7-7-6.1-19.9L100.8 0H85v11.7c0 11.8-1 18.7-2.8 20.5-.5.5-5.4 1.2-10.8 1.5-8.8.5-10.1.3-11.5-1.3-3.1-3.6-4.9-11.9-4.9-22.3V0H2v12.4zM157.5 46c24.7 1.4 33.3 2.8 36.5 6 1 1 4.6 3.1 8.3 4.6 4.5 1.9 4.5 1.9 5.1 19.9.3 7.7 1 18.7 1.6 24.5 1.3 11.1.6 31-1.1 34.2-.5 1-1.6 1.8-2.4 1.8-.7 0-3.3 1.5-5.8 3.4-2.4 1.9-5.4 3.9-6.6 4.5-1.3.7-2.1 2.2-2.2 3.9l-.1 2.7-.8-3-.8-3-.1 2.8c-.1 2.2-.8 3-3.1 3.8-2.4.9-3 1.7-3 3.9 0 2.5-.4 2.8-4 3.2-3.1.3-4 0-4.1-1.2-.1-1.1-.2-1.1-.6.2-.2 1-1.2 1.8-2.1 1.8-.9 0-2.7.3-3.9.6-1.7.5-2.3.2-2.3-1 0-1.9-1.6-2.1-2.7-.3-.4.8-2 1.7-3.5 2.1-2.1.5-2.8.3-2.8-.9 0-.9-.9-1.5-2.5-1.5-1.5 0-2.5.6-2.5 1.4 0 1.9-2.2 2.6-8.3 2.6-4.8 0-5.3-.2-6.5-3-.8-1.8-2.1-3-3.3-3-1.2 0-1.9-.7-1.9-2 0-1.5-.7-2-2.5-2s-2.5.5-2.5 2c0 1.3-.7 2-2 2-1.6 0-2 .7-2 3 0 3-.1 3-5.4 3-7.3 0-8.6-.6-8.6-4.1 0-2.4-.4-2.9-2.5-2.9s-2.5.5-2.5 3.1c0 2.4-.3 3-1.6 2.5-.9-.3-2.2-.6-3-.6-.9 0-1.4-1.1-1.4-3 0-2-.5-3-1.5-3s-1.5 1-1.5 3c0 2.8-.2 3-4 2.8-3.4-.1-4.1-.5-5-3.1l-1-3-2.3 2c-2.8 2.6-8.4 5.3-11.1 5.4-1.4.1-1.1.4 1.2 1 4 1.2 6.3 5.6 3.7 7.5-1.3 1-1.1 1.3 1.5 2.4 2.4 1 3 1.9 3 4.2 0 2.5-.2 2.7-1.9 1.8-2.5-1.3-5.8-1.3-6.3 0-.2.6-2 1.3-4 1.7-3.5.5-4.1.2-9-4.6-2.8-2.8-5.5-5.1-5.9-5.1-.5 0-.8-2.1-.7-4.6 0-2.5-.5-5.1-1.1-5.7-1.6-1.6-1.4-4.7.4-4.7.9 0 2.6.7 3.9 1.5 2.1 1.4 2.4 1.3 4.3-.7 2.4-2.6 4.4-10.6 2.4-9.3-.8.4-3.1-1.3-6.2-4.5-4.5-4.7-4.9-5.5-4.9-10 0-4.3.5-5.4 4-9.2 5-5.5 5.4-9.8 1.1-14.3-1.5-1.7-3.3-4.1-4-5.3-1.5-2.8-.3-10.2 1.8-11 2-.7 5.9-4.2 7.1-6.3 1.3-2.3-2.5-12.9-5.6-15.4-2.2-1.7-2.5-2.7-2.2-7 .3-4.8.5-5.1 4.5-6.9 2.3-1.1 4.4-2.7 4.6-3.5 1-3.8 10.9-6.1 32.2-7.6 22.6-1.6 39-1.7 62-.5z"/><path d="M119 90.1c0 1.2-.5 1.9-1.2 1.7-1.3-.5-8.2 6.2-7.3 7 .3.3.1 1-.4 1.6-.5.6-1.1 3.9-1.5 7.3-.6 5.5-.5 6.3 1.3 7.2 1.1.6 3.1 1.1 4.5 1.1 1.9 0 2.6.5 2.6 1.9 0 1 .6 2.4 1.4 3 1.2 1 1.7.5 2.7-2.8 1.1-3.8 1.7-4.2 6.6-5.8 2.9-.9 5.3-2.3 5.3-3 0-.7-.3-1.3-.8-1.3-.4 0-.6-2-.4-4.5.3-3.8.1-4.5-1.4-4.5-1.4 0-1.6-.2-.6-.9.9-.6-.1-1.2-3.2-2-4.4-1.1-4.6-1.3-4.6-4.6 0-2.4-.5-3.5-1.5-3.5-.9 0-1.5.9-1.5 2.1zM190 98.5c0 1.1-1.1 1.5-3.8 1.5h-3.8l.4 6.7c.5 7.4 1.5 10.3 3.7 10.3.7 0 1.6.6 1.8 1.2.4.9.6.7.6-.3.1-1.1 1.1-1.6 3.2-1.7 1.7 0 3.2-.2 3.4-.4.1-.2.6-3.2.9-6.8.6-5.5.4-6.9-1.1-8.6-2.4-2.8-5.3-3.8-5.3-1.9zM202 105.4c0 .9.5 1.6 1 1.6.6 0 1-.4 1-.9 0-.6-.4-1.3-1-1.6-.5-.3-1 .1-1 .9z"/></svg>